<mxfile host="app.diagrams.net" modified="2024-02-01T10:14:47.389Z" agent="Mozilla/5.0 (X11; Linux x86_64) AppleWebKit/537.36 (KHTML, like Gecko) Chrome/114.0.0.0 Safari/537.36" etag="JbZ8HOilC8jOt_vGK52W" version="23.1.0" type="google">
  <diagram name="PÃ¡gina-1" id="8CB9hDq_G_EzbzMUHOCT">
    <mxGraphModel grid="1" page="1" gridSize="10" guides="1" tooltips="1" connect="1" arrows="1" fold="1" pageScale="1" pageWidth="827" pageHeight="1169" math="0" shadow="0">
      <root>
        <mxCell id="0" />
        <mxCell id="1" parent="0" />
        <mxCell id="Wujbzl1QVHDZwyvm4JEV-1" value="Actor" style="shape=umlActor;verticalLabelPosition=bottom;verticalAlign=top;html=1;" vertex="1" parent="1">
          <mxGeometry x="-270" y="260" width="30" height="60" as="geometry" />
        </mxCell>
        <mxCell id="Wujbzl1QVHDZwyvm4JEV-2" value="Iniciar partida" style="ellipse;whiteSpace=wrap;html=1;" vertex="1" parent="1">
          <mxGeometry x="-130" y="180" width="140" height="70" as="geometry" />
        </mxCell>
        <mxCell id="Wujbzl1QVHDZwyvm4JEV-3" value="Descubir casilla" style="ellipse;whiteSpace=wrap;html=1;" vertex="1" parent="1">
          <mxGeometry x="-130" y="270" width="140" height="70" as="geometry" />
        </mxCell>
        <mxCell id="Wujbzl1QVHDZwyvm4JEV-4" value="Marcar casilla" style="ellipse;whiteSpace=wrap;html=1;" vertex="1" parent="1">
          <mxGeometry x="-130" y="360" width="140" height="70" as="geometry" />
        </mxCell>
        <mxCell id="Wujbzl1QVHDZwyvm4JEV-8" value="" style="endArrow=classic;html=1;rounded=0;exitX=0.5;exitY=0.5;exitDx=0;exitDy=0;exitPerimeter=0;entryX=0;entryY=0.5;entryDx=0;entryDy=0;" edge="1" parent="1" source="Wujbzl1QVHDZwyvm4JEV-1" target="Wujbzl1QVHDZwyvm4JEV-2">
          <mxGeometry width="50" height="50" relative="1" as="geometry">
            <mxPoint x="-90" y="420" as="sourcePoint" />
            <mxPoint x="-40" y="370" as="targetPoint" />
          </mxGeometry>
        </mxCell>
        <mxCell id="Wujbzl1QVHDZwyvm4JEV-11" value="" style="endArrow=classic;html=1;rounded=0;exitX=0.5;exitY=0.5;exitDx=0;exitDy=0;exitPerimeter=0;entryX=0;entryY=0.5;entryDx=0;entryDy=0;" edge="1" parent="1" source="Wujbzl1QVHDZwyvm4JEV-1" target="Wujbzl1QVHDZwyvm4JEV-3">
          <mxGeometry width="50" height="50" relative="1" as="geometry">
            <mxPoint x="-190" y="380" as="sourcePoint" />
            <mxPoint x="-140" y="330" as="targetPoint" />
          </mxGeometry>
        </mxCell>
        <mxCell id="Wujbzl1QVHDZwyvm4JEV-12" value="" style="endArrow=classic;html=1;rounded=0;exitX=0.5;exitY=0.5;exitDx=0;exitDy=0;exitPerimeter=0;entryX=0;entryY=0.5;entryDx=0;entryDy=0;" edge="1" parent="1" source="Wujbzl1QVHDZwyvm4JEV-1" target="Wujbzl1QVHDZwyvm4JEV-4">
          <mxGeometry width="50" height="50" relative="1" as="geometry">
            <mxPoint x="-210" y="380" as="sourcePoint" />
            <mxPoint x="-160" y="330" as="targetPoint" />
          </mxGeometry>
        </mxCell>
      </root>
    </mxGraphModel>
  </diagram>
</mxfile>
